Coordinates
version=1
nRows=20
nColumns=38
inDegrees=no

Units are S.I. units (second, meters, Newtons, ...)
If the header above contains a line with 'inDegrees', this indicates whether rotational values are in degrees (yes) or radians (no).

endheader
time	pelvis_tilt	pelvis_list	pelvis_rotation	pelvis_tx	pelvis_ty	pelvis_tz	hip_flexion_r	hip_adduction_r	hip_rotation_r	knee_angle_r	ankle_angle_r	subtalar_angle_r	mtp_angle_r	hip_flexion_l	hip_adduction_l	hip_rotation_l	knee_angle_l	ankle_angle_l	subtalar_angle_l	mtp_angle_l	lumbar_extension	lumbar_bending	lumbar_rotation	arm_flex_r	arm_add_r	arm_rot_r	elbow_flex_r	pro_sup_r	wrist_flex_r	wrist_dev_r	arm_flex_l	arm_add_l	arm_rot_l	elbow_flex_l	pro_sup_l	wrist_flex_l	wrist_dev_l
20	2.89818	1.34523	-1.27739	0.685676	-0.116105	0.952279	-0.260458	0.0477922	-0.0565263	0.268033	-0.200885	0	0	-0.252159	-0.133565	-0.0766936	0.309556	-0.146559	0	0	-0.379344	0.0442319	0.218468	0.0963147	-0.486453	-0.35388	1.89899	1.5708	0	0	0.654035	-0.282722	0.506637	1.43581	1.5708	0	0
20.01	2.89709	1.34568	-1.27636	0.685819	-0.115899	0.952338	-0.26168	0.0482282	-0.0568354	0.264109	-0.203682	0	0	-0.252679	-0.133814	-0.0765055	0.30763	-0.147786	0	0	-0.377938	0.0437876	0.212949	0.106757	-0.485482	-0.342375	1.8899	1.5708	0	0	0.652474	-0.286485	0.502281	1.43543	1.5708	0	0
20.02	2.89606	1.34666	-1.27525	0.685888	-0.115705	0.952301	-0.261822	0.048308	-0.0580641	0.26196	-0.205111	0	0	-0.252097	-0.133946	-0.0770224	0.306983	-0.148328	0	0	-0.376234	0.0437359	0.2099	0.114853	-0.485275	-0.333477	1.8828	1.5708	0	0	0.651855	-0.287142	0.498926	1.43279	1.5708	0	0
20.03	2.89433	1.3477	-1.27314	0.685919	-0.115485	0.952279	-0.261676	0.0487144	-0.0601453	0.260197	-0.206441	0	0	-0.251343	-0.134208	-0.0773264	0.306299	-0.148984	0	0	-0.374237	0.0438088	0.206478	0.122842	-0.485725	-0.323425	1.87536	1.5708	0	0	0.650795	-0.287283	0.494925	1.42978	1.5708	0	0
20.04	2.89263	1.34833	-1.2708	0.685942	-0.11524	0.952296	-0.262187	0.0495746	-0.0619081	0.258095	-0.20727	0	0	-0.250931	-0.134653	-0.0776651	0.305757	-0.149494	0	0	-0.372586	0.0440401	0.203522	0.130025	-0.486318	-0.314223	1.86843	1.5708	0	0	0.650729	-0.287347	0.491972	1.42612	1.5708	0	0
20.05	2.89264	1.34954	-1.27016	0.685976	-0.114981	0.95221	-0.262202	0.0495854	-0.0629973	0.256146	-0.207796	0	0	-0.24978	-0.134619	-0.0780609	0.305962	-0.149569	0	0	-0.370404	0.0436364	0.201098	0.136159	-0.486735	-0.306488	1.86209	1.5708	0	0	0.651862	-0.287858	0.490839	1.42249	1.5708	0	0
20.06	2.89231	1.3511	-1.26924	0.686004	-0.114706	0.952076	-0.261693	0.0490631	-0.063838	0.254633	-0.208365	0	0	-0.248011	-0.134562	-0.0785929	0.306668	-0.149449	0	0	-0.367751	0.0431412	0.198795	0.141938	-0.487399	-0.299118	1.85563	1.5708	0	0	0.652835	-0.288182	0.490271	1.41931	1.5708	0	0
20.07	2.89114	1.35232	-1.26741	0.686018	-0.114418	0.951951	-0.261163	0.0489166	-0.0652069	0.253927	-0.208646	0	0	-0.246373	-0.13488	-0.0791664	0.307689	-0.149184	0	0	-0.365172	0.0431146	0.196323	0.147864	-0.488463	-0.29166	1.84874	1.5708	0	0	0.653124	-0.288432	0.48962	1.41661	1.5708	0	0
20.08	2.88985	1.35341	-1.26529	0.68604	-0.114084	0.951826	-0.260595	0.0490632	-0.0671536	0.253794	-0.208653	0	0	-0.244859	-0.135368	-0.0794499	0.308792	-0.148748	0	0	-0.362682	0.0432256	0.19395	0.153396	-0.489301	-0.28531	1.84206	1.5708	0	0	0.653302	-0.288915	0.489483	1.41448	1.5708	0	0
20.09	2.88878	1.3545	-1.26326	0.686067	-0.113717	0.95171	-0.25982	0.0492091	-0.0693738	0.254288	-0.208364	0	0	-0.243314	-0.135842	-0.0796377	0.309945	-0.148258	0	0	-0.36015	0.0434218	0.191583	0.158615	-0.489651	-0.280188	1.83552	1.5708	0	0	0.653224	-0.28933	0.489779	1.41274	1.5708	0	0
20.1	2.88794	1.35548	-1.26171	0.686088	-0.113363	0.951609	-0.258794	0.0491571	-0.0713349	0.255655	-0.207659	0	0	-0.242017	-0.136129	-0.0797733	0.310916	-0.147729	0	0	-0.357883	0.0436758	0.189755	0.163383	-0.48984	-0.276629	1.82935	1.5708	0	0	0.653613	-0.289663	0.490809	1.41096	1.5708	0	0
20.11	2.88686	1.35608	-1.26016	0.686094	-0.113001	0.951521	-0.257956	0.0491338	-0.073206	0.25754	-0.206691	0	0	-0.241291	-0.136466	-0.0799408	0.311687	-0.147168	0	0	-0.355803	0.0442207	0.188125	0.168185	-0.489816	-0.273766	1.8229	1.5708	0	0	0.654005	-0.289753	0.492164	1.40892	1.5708	0	0
20.12	2.88561	1.35641	-1.25857	0.686089	-0.11262	0.951438	-0.257328	0.0491817	-0.0749673	0.259625	-0.205535	0	0	-0.24094	-0.136885	-0.0802123	0.312401	-0.146677	0	0	-0.353987	0.0448604	0.186875	0.172403	-0.489677	-0.271981	1.81679	1.5708	0	0	0.654645	-0.289415	0.493779	1.40665	1.5708	0	0
20.13	2.88451	1.35655	-1.25727	0.686095	-0.112234	0.951362	-0.257005	0.0493303	-0.0763328	0.261339	-0.204391	0	0	-0.240963	-0.137254	-0.0803102	0.312906	-0.146143	0	0	-0.352424	0.0455039	0.186003	0.176088	-0.489476	-0.271006	1.81112	1.5708	0	0	0.655898	-0.289127	0.495718	1.40405	1.5708	0	0
20.14	2.88417	1.35656	-1.25679	0.686106	-0.111837	0.951312	-0.257219	0.049476	-0.077131	0.261989	-0.203684	0	0	-0.241253	-0.137396	-0.0800609	0.313309	-0.14558	0	0	-0.350984	0.0461413	0.185152	0.179688	-0.489226	-0.270133	1.8057	1.5708	0	0	0.656987	-0.288693	0.497483	1.40134	1.5708	0	0
20.15	2.88404	1.35628	-1.25665	0.686113	-0.111447	0.951291	-0.257829	0.0497252	-0.0775972	0.262167	-0.203283	0	0	-0.241945	-0.137464	-0.0796733	0.313444	-0.145189	0	0	-0.349944	0.0468128	0.184474	0.183116	-0.489118	-0.269325	1.80081	1.5708	0	0	0.657662	-0.287927	0.498761	1.39896	1.5708	0	0
20.16	2.88356	1.35578	-1.2563	0.686104	-0.111092	0.951301	-0.258443	0.0502131	-0.0777835	0.262665	-0.202973	0	0	-0.242922	-0.137637	-0.0795165	0.313342	-0.144959	0	0	-0.349305	0.0476922	0.184114	0.186415	-0.489086	-0.26889	1.79642	1.5708	0	0	0.658381	-0.287368	0.500013	1.39689	1.5708	0	0
20.17	2.88309	1.35496	-1.25592	0.68608	-0.110762	0.951335	-0.259084	0.0510447	-0.0779229	0.263807	-0.202551	0	0	-0.244221	-0.137915	-0.0792637	0.313068	-0.14479	0	0	-0.348847	0.048908	0.183336	0.190406	-0.488777	-0.267879	1.79174	1.5708	0	0	0.658361	-0.286769	0.500486	1.39501	1.5708	0	0
20.18	2.88341	1.35448	-1.25605	0.686062	-0.110375	0.951335	-0.259623	0.0515129	-0.078034	0.264855	-0.201926	0	0	-0.245291	-0.137986	-0.0784591	0.312538	-0.144786	0	0	-0.348013	0.0497728	0.182433	0.193554	-0.48837	-0.267034	1.78762	1.5708	0	0	0.657828	-0.285658	0.500501	1.39332	1.5708	0	0
20.19	2.88432	1.35401	-1.25691	0.686032	-0.109997	0.951314	-0.260169	0.0515631	-0.0777299	0.265993	-0.201157	0	0	-0.246434	-0.137879	-0.0777393	0.312088	-0.144779	0	0	-0.346673	0.050721	0.180725	0.197833	-0.487663	-0.264265	1.78244	1.5708	0	0	0.65694	-0.285416	0.499989	1.39126	1.5708	0	0
